Patient4_TMGait_0pt8_01_right_49_EMG.mot
version=1
nRows=16
nColumns=33
inDegrees=no
endheader
time	1LAddLong	2LGlutMax	3LGlutMed	4LIliopsoas	5LSemiMemb	6LBicFemLong	7LRecFem	8LVastMed	9LVastLat	10LGasMed	11LTibAnt	12lTibPost	13LPeroneusLong	14LSol	15LExtDigLong	16LFlexDigLong	17RAddLong	18RGlutMax	19RGlutMed	20RIliopsoas	21RSemiMemb	22RBicFemLong	23RRecFem	24RVastMed	25RVastLat	26RGasMed	27RTibAnt	28RTibPost	29RPeroneusLong	30RSol	31RExtDigLong	32RFlexDigLong
55.965	0.023956	0.30884	-0.029602	-0.013123	-0.10529	-0.11154	-0.069885	-0.010681	0.16892	0.014496	-0.048065	-0.010071	0.030823	-0.023346	-0.052338	0.021362	0.008087	0.16693	0.16022	0.02243	0.30838	-0.18509	-0.17441	-0.10941	0.030212	-0.017395	-0.16571	-0.019989	-0.22553	0.048218	-0.001678	-0.007172
55.966	0.066528	0.29159	-0.009155	0.019836	0.25467	-0.41061	-0.037689	-0.016022	0.16312	-0.005341	-0.11719	-0.015717	0.03418	-0.000763	-0.075989	0.00351	0.028381	0.13184	-0.026855	-0.11993	0.26276	-0.19684	-0.15366	-0.15976	0.02533	-0.009918	0.035553	-0.042114	-0.070496	-0.079498	-0.000305	-0.009155
55.967	0.085907	0.31326	-0.020752	0.007782	0.28305	-0.62866	-0.099945	-0.005798	0.10971	-0.032501	-0.24567	-0.016632	0.18188	0.036011	-0.033417	0.007324	0.045624	0.10269	-0.12726	-0.17517	0.31143	-0.10315	-0.16037	-0.17639	0.012207	-0.009613	0.20935	0.049744	-0.042877	-0.55893	-0.004883	-0.00946
55.968	0.070953	0.26367	-0.049133	0.019684	0.15472	-0.48798	-0.19455	-0.010681	0.019531	-0.035248	-0.1651	-0.014954	0.26337	0.079041	0.22568	0.010376	0.056152	0.10681	-0.12817	-0.12405	0.25787	-0.029602	-0.11887	-0.11948	0.00061	0.002594	0.20538	0.027466	-0.099945	-0.79987	-0.003204	-0.010986
55.969	0.058746	0.31311	-0.0177	0.005493	0.094452	-0.26825	-0.14511	-0.028687	-0.067291	-0.014496	0.050964	-0.019379	0.14862	0.080109	0.2385	-0.003204	0.077209	0.096741	-0.093231	0.066986	0.20279	0.010529	-0.16525	-0.065155	0.019226	-0.007782	0.13458	-0.013885	-0.05188	-0.50018	0.002899	-0.014343
55.97	0.052643	0.31342	0.069733	0.003662	0.074158	-0.092621	-0.038147	-0.023041	-0.1268	-0.022278	0.15579	-0.011139	0.072021	0.049438	0.058136	0.008545	0.058289	0.10346	-0.055847	0.26291	0.071716	0.050049	-0.13565	-0.099487	0.030823	-0.016632	0.10284	-0.16953	-0.27405	-0.30579	0.001221	-0.018921
55.971	0.043793	0.30029	0.079041	0.015411	0.11307	0.10086	-0.019684	-0.026855	-0.07782	-0.018616	0.11414	-0.014343	0.086975	0.046387	0.043488	-0.003967	0.022583	0.046997	0.001831	0.29236	0.085907	0.075989	-0.13168	-0.036163	0.019836	-0.057678	0.08606	-0.31464	-0.5336	0.19913	0.000763	-0.021667
55.972	0.029144	0.32364	0.058289	0.002289	0.065918	0.15533	-0.017548	-0.019836	0.011444	-0.014648	0.052032	-0.011139	0.036469	-0.044556	-0.10071	-0.001373	0.017395	-0.006409	-0.072327	0.17059	0.089569	0.10315	-0.13687	-0.077362	0.022278	-0.037384	0.065155	-0.011597	-0.39169	0.7074	-0.000305	-0.018158
55.973	0.015106	0.33798	0.10315	0.006409	0.026245	0.19455	-0.097656	-0.035858	0.065155	0.008392	0.007477	-0.018921	0.084229	-0.11108	-0.177	0.00473	0.007629	-0.0177	-0.12985	0.039063	0.1828	0.015869	-0.098267	-0.15549	-0.004883	-0.017395	0.028229	0.19363	0.10284	0.79483	0.000916	-0.014801
55.974	-0.00412	0.38773	0.15701	0.015411	0.035553	0.29709	-0.029907	-0.02533	0.082245	0.015869	-0.018921	-0.009766	0.071564	-0.097504	-0.17914	0.001221	-0.011597	0.045319	-0.22064	-0.012512	0.12161	-0.080261	-0.09079	-0.13931	0.007477	-0.026703	0.009308	0.11765	0.47806	0.69229	-0.000763	-0.01236
55.975	-0.031433	0.39993	0.13794	0.002747	0.020142	0.46631	-0.002441	-0.008392	0.020294	0.010376	-0.005951	-0.014038	0.075226	-0.082397	-0.11566	0.007629	-0.005188	0.040894	-0.30014	-0.043793	0.37796	-0.12222	-0.08316	-0.097961	0.019379	-0.012512	-0.003662	0.20233	0.49927	0.30502	0.003662	-0.00946
55.976	-0.06424	0.38589	0.17151	0.008392	0.010986	0.50598	-0.010834	0.054932	0.03006	0.026245	-0.011292	-0.014954	0.081787	-0.020142	-0.045776	-0.000153	-0.00946	0.007935	-0.19882	-0.01236	0.41245	-0.071411	-0.05661	-0.057678	0.006561	-0.010376	-0.009155	0.14557	0.28854	0.044403	0.002747	-0.00351
55.977	-0.070343	0.33691	0.17136	0.006714	-0.006866	0.46646	-0.051575	0.011597	0.093079	0.007782	-0.01297	-0.007935	0.075989	0.001526	0.01297	-0.003204	-0.009918	0.000763	-0.12192	0.035553	0.36972	0.024261	-0.050354	-0.049286	0.029907	-0.003052	0.023651	0.050354	0.1329	0.041351	0.004425	0.000458
55.978	-0.055695	0.3862	0.15808	0.002594	-0.058136	0.12436	-0.13855	0.040131	0.075531	0.039825	-0.007324	-0.005341	0.067596	-0.042419	0.046692	-0.007172	0.011902	0.012817	-0.21759	0.053558	0.33997	0.10056	-0.035553	-0.1059	0.011444	0.00412	0.024414	0.00412	-0.001221	-0.21668	0.002747	-0.00946
55.979	-0.020294	0.35187	0.15366	0.004883	-0.11032	-0.60532	-0.16235	0.006714	0.080566	0.019531	0.002899	-0.006409	0.057526	-0.024567	0.037689	0.005798	0.007019	0.082245	-0.17395	0.023193	0.30777	0.10742	-0.051575	-0.10422	0.027313	0.010529	-0.018311	-0.011292	0.019989	-0.054779	0.00061	-0.000153
55.98	0.011902	0.31311	0.15305	0.008392	-0.012054	-0.67917	-0.15793	0.003204	0.058899	0.016174	0.000458	-0.002594	0.034637	-0.007782	0.016022	-0.003052	0.022888	0.075226	-0.14114	-0.011749	0.25559	-0.008392	-0.069885	-0.11383	0.019531	0.00885	-0.011292	-0.003815	0.01297	0.0177	-0.001373	-0.013275
